<?xml version="1.0" encoding="utf-8"?>
<svg
  width="64"
  height="64"
  viewBox="0 0 16 16"
  xmlns="http://www.w3.org/2000/svg"
  fill="none"
  >
    <path
      fill="#0A66C2"
      d="
        M12.225 12.225
        h-1.778
        V9.44
        c0-.664-.012-1.519-.925-1.519-.926 0-1.068.724-1.068 1.47
        v2.834
        H6.676
        V6.498
        h1.707
        v.783
        h.024
        c.348-.594.996-.95 1.684-.925 1.802 0 2.135 1.185 2.135 2.728
        l-.001 3.14
        z
        M4.67 5.715
        a1.037 1.037 0 01-1.032-1.031
        c0-.566.466-1.032 1.032-1.032.566 0 1.031.466 1.032 1.032 0 .566-.466 1.032-1.032 1.032
        z
        m.889 6.51
        h-1.78
        V6.498
        h1.78
        v5.727
        z
        M13.11 2
        H2.885
        A.88.88 0 002 2.866
        v10.268
        a.88.88 0 00.885.866
        h10.226
        a.882.882 0 00.889-.866
        V2.865
        a.88.88 0 00-.889-.864
        z
        "
      />
  </svg>