<svg xmlns="http://www.w3.org/2000/svg" width="58" height="58" viewBox="0 0 67 58" fill="none">
  <path fill="#8080F2" d="m46.56 21.11-12.54-7.24a1 1 0 0 0-1.02 0l-12.54 7.24a1 1 0 0 0-.5.88v14.48c0 .36.19.7.5.88L33 44.59c.32.18.7.18 1.02 0l12.54-7.24c.31-.18.5-.52.5-.88V21.99c0-.36-.19-.7-.5-.88"/>
  <path fill="#4B32C3" d="m.9 27.7 15-26.06A3.2 3.2 0 0 1 18.53 0h29.96c1.1 0 2.1.7 2.64 1.64l14.98 26a3.1 3.1 0 0 1 0 3.08L51.13 56.58A3 3 0 0 1 48.5 58H18.53c-1.1 0-2.1-.47-2.64-1.41L.9 30.69a3 3 0 0 1 0-2.99m12.41 12.54c0 .38.23.74.56.93l19.09 11.01c.33.2.75.2 1.08 0l19.1-11.01c.33-.2.56-.55.56-.93V18.22c0-.39-.23-.74-.56-.93L34.06 6.28a1.1 1.1 0 0 0-1.08 0l-19.1 11c-.34.2-.57.55-.57.94z"/>
</svg>
