<svg
  xmlns="http://www.w3.org/2000/svg"
  height="48px"
  width="48px"
  viewBox="0 -960 960 960"
  fill="#c12a1c"
  >
  <path d="M376.69-539.31q-40.38-40.38-40.38-103.5 0-63.11 40.38-103.3 40.39-40.2 103.31-40.2t103.31 40.2q40.38 40.19 40.38 103.3 0 63.12-40.38 103.5-40.39 40.39-103.31 40.39t-103.31-40.39ZM165-157.69v-90.93q0-35.23 18.08-61.65t47.38-40.27q65.16-30.07 126.77-44.81 61.62-14.73 122.77-14.73t122.46 15.04q61.31 15.04 126.46 44.5 29.92 13.85 48 40.27T795-248.62v90.93H165Z"/>
</svg>