<svg
  xmlns="http://www.w3.org/2000/svg"
  height="48px"
  width="48px"
  viewBox="0 -960 960 960"
  fill="#c12a1c"
  >
  <path d="M46.31-126.16v-89.3q0-32.15 15.15-55.15 15.16-23 45.23-37.24 53.08-27.23 117.04-43.57 63.96-16.35 134.23-16.35 70.27 0 133.04 16.35 62.77 16.34 119.23 43.57 28.69 14.24 44.54 37.24 15.84 23 15.84 55.15v89.3H46.31Zm208.46-369.96q-40-40.11-40-104.88h-9.23q-9.23 0-14.46-5.73t-5.23-13.77q0-8.04 5.23-13.96 5.23-5.92 14.46-5.92h9.23q.39-38.85 17.77-68.43 17.38-29.57 47.77-50.34v38.61q0 6.62 4.81 11.23 4.8 4.62 11.42 4.62 6.23 0 11.04-4.62 4.8-4.61 4.8-11.23v-52.61q8-2.39 21.24-4.27 13.23-1.89 25.46-1.89 11.23 0 24.46 1.89 13.23 1.88 22.23 4.27v52.61q0 6.62 4.31 11.23 4.3 4.62 11.53 4.62 5.62 0 10.93-4.62 5.31-4.61 5.31-11.23v-38.61q29.76 20.77 46.65 50.34 16.88 29.58 17.65 68.43h10.23q8.23 0 13.96 5.92 5.74 5.92 5.74 13.96 0 8.04-5.74 13.77-5.73 5.73-13.96 5.73h-10.23q0 64.77-40.69 104.88Q420.77-456 357.77-456t-103-40.12Zm165.38-41.99q23.62-23.74 23.62-63.58H273.15q0 39.84 23.12 63.58 23.11 23.73 61.69 23.73t62.19-23.73Zm241.31 176.42-2.23-29.62q-7.38-3.23-15.35-8.11-7.96-4.89-13.96-9.27l-27 12.61L583-427.62l25.62-19.46q-2-3.38-2.2-7.46-.19-4.08-.19-7.27 0-3.19.19-6.88.2-3.69 2.2-7.46L583-496l19.92-31.54 27 12.62q7-5.39 14.46-9.58 7.47-4.19 14.85-7.81l2.23-29.23h37.39l2.61 29.23q6.39 3.62 13.85 7.81 7.46 4.19 15.46 9.58l26.61-12.62L777.69-496l-25.61 19.85q1 3.77 1.5 7.46t.5 6.88q0 3.19-.5 7.27t-1.5 7.46l25.61 19.46-20.31 31.54-26.61-12.61q-7 4.38-14.96 9.27-7.96 4.88-14.35 8.11l-2.61 29.62h-37.39Zm45.46-72.85q11.39-10.69 11.39-27.08 0-16.38-11.39-27.26-11.38-10.89-27.27-10.89-15.88 0-26.57 10.89-10.7 10.88-10.7 27.26 0 16.39 10.7 27.08 10.69 10.69 26.57 10.69 15.89 0 27.27-10.69Zm59.62-145-7.31-35.54q-10.77-3.23-22.19-10.5-11.43-7.27-17.43-15.42l-42.46 14.85-19.92-34.23 34.15-27.39q-2-5.38-3-11.46-1-6.08-1-11.27 0-5.19 1-11.46 1-6.27 3-11.66l-34.15-26.99 19.92-34.24 42.46 14.47q6-8.16 17.43-15.73 11.42-7.58 22.19-9.81l7.31-35.54h38.23l7.31 35.54q9.77 2.23 21.19 9.81 11.42 7.57 18.81 15.73l42.07-14.47 19.93 34.24-34.16 26.99q1 5.39 2.5 11.66 1.5 6.27 1.5 11.46 0 5.19-1.5 11.27-1.5 6.08-2.5 11.46l34.16 27.39-19.93 34.23L852.08-641q-7.39 8.15-18.81 15.42-11.42 7.27-21.19 10.5l-7.31 35.54h-38.23Zm59.81-90.27q16.5-16.5 16.5-40.69 0-24.19-16.5-40.69-16.5-16.5-41.2-16.5-24.69 0-40.69 16.5-16 16.5-16 40.69 0 24.19 16 40.69 16 16.5 40.69 16.5 24.7 0 41.2-16.5Z"/>
</svg>