<svg
  width="800px"
  height="800px"
  viewBox="0 0 24 24"
  xmlns="http://www.w3.org/2000/svg"
  fill="#ffffff"
>
  <title>material_design</title>
  <rect
    width="24"
    height="24"
    fill="none"
  />
  <path
    d="
      M21,12
      a9,9,0,0,0-2-5.62
      V17.63
      A8.78,8.78,0,0,0,21,12
      m-3.37,7
      H6.38
      a9.5,9.5,0,0,0,2.67,1.41
      A8.91,8.91,0,0,0,12,21,8.86,8.86,0,0,0,15,20.41,9.72,9.72,0,0,0,17.63,19
      M11,17,7,9
      v8
      h4
      m6-8-4,8
      h4
      V9
      m-5,5.53
      L15.75,7
      H8.25
      L12,14.53
      M17.63,5
      A8.91,8.91,0,0,0,6.38,5
      H17.63
      M5,17.63
      V6.38
      A9,9,0,0,0,3,12
      a8.78,8.78,0,0,0,2,5.63
      M23,12
      a10.57,10.57,0,0,1-3.22,7.78
      A10.57,10.57,0,0,1,12,23
      a10.59,10.59,0,0,1-7.78-3.22
      A10.57,10.57,0,0,1,1,12,10.59,10.59,0,0,1,4.22,4.22,10.59,10.59,0,0,1,12,1
      a10.57,10.57,0,0,1,7.78,3.22
      A10.59,10.59,0,0,1,23,12
      Z
      "
  />
</svg>