<?xml version="1.0" encoding="UTF-8" standalone="no"?>
<svg
   height="18"
   viewBox="0 -960 720 720"
   width="18"
   version="1.1"
   id="svg1"
   xmlns="http://www.w3.org/2000/svg"
   xmlns:svg="http://www.w3.org/2000/svg">
  <defs
     id="defs1" />
  <path
     d="M 678,-240 Q 553,-240 431,-294.5 309,-349 209,-449 109,-549 54.5,-671 0,-793 0,-918 q 0,-18 12,-30 12,-12 30,-12 h 162 q 14,0 25,9.5 11,9.5 13,22.5 l 26,140 q 2,16 -1,27 -3,11 -11,19 l -97,98 q 20,37 47.5,71.5 27.5,34.5 60.5,66.5 31,31 65,57.5 34,26.5 72,48.5 l 94,-94 q 9,-9 23.5,-13.5 14.5,-4.5 28.5,-2.5 l 138,28 q 14,4 23,14.5 9,10.5 9,23.5 v 162 q 0,18 -12,30 -12,12 -30,12 z m -557,-480 66,-66 -17,-94 H 81 q 5,41 14,81 9,40 26,79 z m 358,358 q 39,17 79.5,27 40.5,10 81.5,13 v -88 l -94,-19 z M 121,-720 Z m 358,358 z"
     id="path1"
     style="fill:#010101" />
</svg>
