<svg
  viewBox="0 0 512 512"
  fill="none"
  xmlns="http://www.w3.org/2000/svg"
>
  <g transform="scale(5.224490 5.333333)">
    <path
      d="
        M41.4395 69.3848
        C28.8066 67.8535 19.9062 58.7617 19.9062 46.9902
        C19.9062 42.2051 21.6289 37.0371 24.5 33.5918
        C23.2559 30.4336 23.4473 23.7344 24.8828 20.959
        C28.7109 20.4805 33.8789 22.4902 36.9414 25.2656
        C40.5781 24.1172 44.4062 23.543 49.0957 23.543
        C53.7852 23.543 57.6133 24.1172 61.0586 25.1699
        C64.0254 22.4902 69.2891 20.4805 73.1172 20.959
        C74.457 23.543 74.6484 30.2422 73.4043 33.4961
        C76.4668 37.1328 78.0937 42.0137 78.0937 46.9902
        C78.0937 58.7617 69.1934 67.6621 56.3691 69.2891
        C59.623 71.3945 61.8242 75.9883 61.8242 81.252
        L61.8242 91.2051
        C61.8242 94.0762 64.2168 95.7031 67.0879 94.5547
        C84.4102 87.9512 98 70.6289 98 49.1914
        C98 22.1074 75.9883 6.69539e-07 48.9043 4.309e-07
        C21.8203 1.92261e-07 -1.9479e-07 22.1074 -4.3343e-07 49.1914
        C-6.20631e-07 70.4375 13.4941 88.0469 31.6777 94.6504
        C34.2617 95.6074 36.75 93.8848 36.75 91.3008
        L36.75 83.6445
        C35.4102 84.2188 33.6875 84.6016 32.1562 84.6016
        C25.8398 84.6016 22.1074 81.1563 19.4277 74.7441
        C18.375 72.1602 17.2266 70.6289 15.0254 70.3418
        C13.877 70.2461 13.4941 69.7676 13.4941 69.1934
        C13.4941 68.0449 15.4082 67.1836 17.3223 67.1836
        C20.0977 67.1836 22.4902 68.9063 24.9785 72.4473
        C26.8926 75.2227 28.9023 76.4668 31.2949 76.4668
        C33.6875 76.4668 35.2187 75.6055 37.4199 73.4043
        C39.0469 71.7773 40.291 70.3418 41.4395 69.3848
        Z
      "
      fill="currentColor"
    />
  </g>
</svg>
