<?xml version="1.0" encoding="UTF-8" standalone="no"?>
<svg
   height="20"
   viewBox="0 -960 560 800"
   width="14"
   fill="#e3e3e3"
   version="1.1"
   id="svg1"
   xmlns="http://www.w3.org/2000/svg"
   xmlns:svg="http://www.w3.org/2000/svg">
  <defs
     id="defs1" />
  <path
     d="M 80,-160 Q 47,-160 23.5,-183.5 0,-207 0,-240 V -880 Q 0,-913 23.5,-936.5 47,-960 80,-960 h 247 q 16,0 30.5,6 14.5,6 25.5,17 l 154,154 q 11,11 17,25.5 6,14.5 6,30.5 v 487 q 0,33 -23.5,56.5 Q 513,-160 480,-160 Z M 240,-880 H 80 v 640 H 480 V -640 H 360 q -50,0 -85,-35 -35,-35 -35,-85 z m 80,0 v 120 q 0,17 11.5,28.5 11.5,11.5 28.5,11.5 h 120 v -7 L 327,-880 Z m -120,600 q -17,0 -28.5,-11.5 Q 160,-303 160,-320 q 0,-17 11.5,-28.5 Q 183,-360 200,-360 h 80 q 17,0 28.5,11.5 11.5,11.5 11.5,28.5 0,17 -11.5,28.5 Q 297,-280 280,-280 Z m 0,-160 q -17,0 -28.5,-11.5 Q 160,-463 160,-480 q 0,-17 11.5,-28.5 Q 183,-520 200,-520 h 160 q 17,0 28.5,11.5 11.5,11.5 11.5,28.5 0,17 -11.5,28.5 Q 377,-440 360,-440 Z"
     id="path1" />
</svg>
