<svg
  viewBox="0 0 512 512"
  fill="none"
  xmlns="http://www.w3.org/2000/svg"
>
  <defs>
    <mask id="medium-mask">
      <!-- White = visible, Black = transparent (punched out) -->
      <rect width="1024" height="1024" rx="179.649" fill="white" transform="scale(0.5 0.5)" />
      <g transform="scale(0.5 0.5)" fill="black">
        <path d="
          M1024 704.736
          V797.736
          C1018.16 798.3 1012.16 798.588 1006 798.588
          C896.061 798.588 834.166 707.016 831.497 592.432
          C831.418 588.002 831.448 583.6 831.546 579.228
          C831.606 576.501 831.714 573.783 831.852 571.075
          C831.921 569.628 831.989 568.269 832.098 566.753
          C832.206 565.236 832.315 563.72 832.443 562.204
          C836.401 511.613 852.687 466.594 879.568 433.284
          C896.267 412.606 916.334 396.852 939.09 386.316
          C959.078 376.253 987.17 370.699 1010.07 370.699
          H1011.06
          C1015.4 370.699 1019.71 370.844 1024 371.13
          V396.717
          C1019.45 395.47 1014.58 394.801 1009.4 394.715
          C963.086 395.67 935.486 451.145 932.049 528.007
          H1024
          V549.669
          H929.972
          L929.942 549.689
          C925.703 624.579 966.692 687.87 1024 704.736
          Z"
        />
        <path d="
          M836.115 244.625
          L836.923 244.448
          V238.195
          H672.014
          L518.891 598.084
          L365.768 238.195
          H188.059
          V244.448
          L188.857 244.625
          C218.957 251.419 234.239 261.551 234.239 298.091
          V725.872
          C234.239 762.412 218.898 772.544 188.798 779.338
          L188 779.516
          V785.788
          H308.57
          V779.535
          L307.773 779.358
          C277.672 772.564 262.39 762.432 262.39 725.892
          V322.905
          L459.093 785.788
          H470.249
          L672.683 309.996
          V736.457
          C670.104 765.317 654.96 774.228 627.705 780.382
          L626.897 780.569
          V786.773
          H836.923
          V780.569
          L836.115 780.382
          C808.831 774.228 793.322 765.317 790.743 736.457
          L790.605 298.091
          H790.743
          C790.743 261.551 806.024 251.419 836.115 244.625
          Z"
        />
      </g>
    </mask>
  </defs>
  <!-- Solid fill rect, masked by the Medium letterform cutout -->
  <rect width="512" height="512" fill="black" mask="url(#medium-mask)" />
</svg>
