<svg
  xmlns="http://www.w3.org/2000/svg"
  height="48px"
  width="48px"
  viewBox="0 -960 960 960"
  fill="#4C5C92"
  >
  <path d="M376.69-539.31q-40.38-40.38-40.38-103.5 0-63.11 40.38-103.3 40.39-40.2 103.31-40.2t103.31 40.2q40.38 40.19 40.38 103.3 0 63.12-40.38 103.5-40.39 40.39-103.31 40.39t-103.31-40.39ZM165-157.69v-90.93q0-35.23 18.08-61.65t47.38-40.27q65.16-30.07 126.77-44.81 61.62-14.73 122.77-14.73t122.46 15.04q61.31 15.04 126.46 44.5 29.92 13.85 48 40.27T795-248.62v90.93H165Zm58.39-58.39h513.22v-32.54q0-15.61-8.88-28.92-8.88-13.31-22.81-20.46-60-28.69-114.3-41.19-54.3-12.5-110.62-12.5-56.32 0-110.93 12.5-54.61 12.5-113.61 41.19-14.92 7.15-23.5 20.46-8.57 13.31-8.57 28.92v32.54Zm317.49-365.65q24.43-24.42 24.43-60.88 0-36.47-24.43-60.89-24.42-24.42-60.88-24.42t-60.88 24.42q-24.43 24.42-24.43 60.89 0 36.46 24.43 60.88 24.42 24.42 60.88 24.42t60.88-24.42ZM480-642.61Zm0 426.53Z"/>
</svg>