<svg xmlns="http://www.w3.org/2000/svg" height="48px" viewBox="0 -960 960 960" width="48px" fill="#c12a1c"><path d="M180-222q60-57 136-91.5T480-348q88 0 164 34.5T780-222v-558H180v558Zm406-226.5q42-42.5 42-104T586-656q-42-42-103.5-42t-104 42Q336-614 336-552.5t42.5 104Q421-406 482.5-406T586-448.5ZM180-107q-28.73 0-50.86-22.14Q107-151.27 107-180v-600q0-28.72 22.14-50.86Q151.27-853 180-853h600q28.72 0 50.86 22.14T853-780v600q0 28.73-22.14 50.86Q808.72-107 780-107H180Zm59-73h482q-59-50-118.28-72.5-59.29-22.5-122.5-22.5-63.22 0-122.72 22.5T239-180Zm191-320.12q-21-21.12-21-52T430.12-604q21.12-21 52-21T534-603.88q21 21.12 21 52T533.88-500q-21.12 21-52 21T430-500.12Zm50-1.88Z"/></svg>