<svg
  xmlns="http://www.w3.org/2000/svg"
  xmlns:xlink="http://www.w3.org/1999/xlink"
  version="1.1"
  width="512"
  height="512"
  viewBox="-256 -256 512 512"
  preserveAspectRatio="xMidYMid meet"
  >
  <style>
    #top-half {
      fill: url(#grad-top);
      stroke: #524343;
      stroke-width: 1;
      filter: url(#shadow);
    }
    #bottom-half {
      fill: url(#grad-bottom);
      stroke: #524343;
      stroke-width: 1;
      filter: url(#shadow);
    }
    #text {
      fill: #FFEDEC;
      stroke: #524343;
      stroke-width: 0.5;
      filter: url(#shadow);
    }
  </style>
  <defs>
    <linearGradient id="grad-top" x1="0%" y1="100%" x2="100%" y2="0%">
      <stop offset="0%" style="stop-color:#E12F45;stop-opacity:1" />
      <stop offset="100%" style="stop-color:#920021;stop-opacity:1" />
    </linearGradient>
    <linearGradient id="grad-bottom" x1="0%" y1="100%" x2="100%" y2="0%">
      <stop offset="0%" style="stop-color:#FF888B;stop-opacity:1" />
      <stop offset="100%" style="stop-color:#BD0B30;stop-opacity:1" />
    </linearGradient>
    <filter id="shadow" x="-20%" y="-20%" width="140%" height="140%">
      <feDropShadow dx="4" dy="-4" stdDeviation="4" flood-color="#000000" flood-opacity="0.4" />
    </filter>
  </defs>
  <path
    class="icon-fill icon-stroke"
    id="top-half"
    d="
      M 199.19,-38.33
      L 199.19,-115
      L 0,-230
      L -199.19,-115
      L -199.19,-38.33
      C -99.6,-90.69 -99.6,-90.69 0,-38.33
      C 99.6,12.78 99.6,12.78 199.19,-38.33
      Z
      "
    />
  <g
    id="text"
    class="icon-fill icon-stroke"
    fill-rule="evenodd"
    >
    <path
      id="text-f"
      d="
        M -14,-24
        H 14
        V -16
        H -6
        V -4
        H 12
        V 4
        H -6
        V 24
        H -14
        Z
      "
      transform="translate(-166, -18) rotate(-25)"
    />
    <path
      id="text-n"
      d="
        M -18,24
        V -24
        H -10
        L 10,4
        V -24
        H 18
        V 24
        H 10
        L -10,-4
        V 24
        Z
      "
      transform="translate(-100, -35)"
    />
    <path
      id="text-c"
      d="
        M 18,-14
        Q 18,-24 0,-24
        Q -18,-24 -18,0
        Q -18,24 0,24
        Q 18,24 18,14
        V 6
        Q 18,16 0,16
        Q -10,16 -10,0
        Q -10,-16 0,-16
        Q 18,-16 18,-6
        Z
      "
      transform="translate(-33, -18) rotate(25)"
    />
    <path
      id="text-3"
      d="
        M -12,-24
        H 12
        L 4,-8
        Q 14,-8 14,8
        Q 14,24 -4,24
        H -14
        V 16
        H -4
        Q 6,16 6,8
        Q 6,0 -4,0
        H -10
        V -8
        H -4
        L 4,-16
        H -12
        Z
      "
      transform="translate(33, 18) rotate(25)"
    />
    <path
      id="text-1"
      d="
        M 4,-24
        V 20
        H 10
        V 24
        H -10
        V 20
        H -4
        V -20
        L -10,-14
        V -18
        L -4,-24
        H 4
        Z
      "
      transform="translate(100, 34)"
    />
    <path
      id="text-4"
      d="
        M 14,-24
        V 0
        H 18
        V 8
        H 14
        V 24
        H 6
        V 8
        H -18
        L 6,-24
        Z
        M 6,0
        H -2
        L 6,-10.67
        Z
      "
      transform="translate(166, 18) rotate(-25)"
    />
  </g>
  <path
    id="bottom-half"
    class="icon-fill icon-stroke"
    d="
      M -199.19,38.33
      L -199.19,115
      L 0,230
      L 199.19,115
      L 199.19,38.33
      C 99.6,90.69 99.6,90.69 0,38.33
      C -99.6,-12.78 -99.6,-12.78 -199.19,38.33
      Z
      "
    />
</svg>