<?xml version="1.0" encoding="UTF-8"?>
<svg id="Layer_1" xmlns="http://www.w3.org/2000/svg" baseProfile="tiny" version="1.2" viewBox="0 0 439.09 131.04">
  <!-- Generator: Adobe Illustrator 29.1.0, SVG Export Plug-In . SVG Version: 2.1.0 Build 142)  -->
  <g>
    <path d="M129.32,25.75c3.53,0,3.81.16,3.85,2.18l.02,1.06c.03,1.27.06,2.37.06,4.65v9.29c0,1.83.58,10.96,12.06,10.96,3.16,0,6.09-1,8.02-2.74,2.78-2.5,4.13-6.45,4.13-12.07v-9.14c0-2.27.16-3.24.62-3.7.49-.49,1.5-.49,3.17-.49h.44c.44,0,.78-.46.78-1.07,0-.77-.29-1.1-.98-1.1-.24,0-.97.03-1.77.06-1.09.04-2.74.1-3.51.1-1.73,0-3.49-.07-4.65-.12h-.16c-.54-.03-.94-.04-1.16-.04-.34,0-.74.18-.74,1.02,0,.35,0,1.16.74,1.16h.29c1.89,0,3.04,0,3.68.59.62.58.87,1.84.87,4.5v8.03c0,7.99-2.72,11.88-8.32,11.88-7.55,0-8.67-6.12-8.67-9.77v-7.34c0-2.28.03-3.38.06-4.65l.02-1.07c.03-2.02.32-2.18,3.85-2.18.86,0,.86-.9.86-1.24,0-.65-.39-.94-.78-.94-.06,0-.23,0-.48.02h-.37c-1.29.06-3.68.15-5.6.15s-4.24-.09-5.54-.13h-.33c-.28-.02-.47-.03-.53-.03-.39,0-.78.29-.78.94,0,.34,0,1.24.86,1.24h0Z" fill="#003594"/>
    <path d="M159.77,36.64c0,.22,0,.81.74.9,1.74.18,2.02.74,2.02,2.02v5.56c0,3.47-.13,5.44-.21,5.68-.17.41-.21.72-1.65.72-1.3,0-1.59,0-1.59,1.02,0,.71.4.86.74.86.18,0,.39,0,.72-.02.77-.02,2.06-.06,4.76-.06,2.25,0,3.02.05,3.36.07h.05c.07,0,.12.01.16.01.54,0,.82-.32.82-.94,0-.94-.43-.94-1.42-.94-1.34,0-1.62,0-1.62-2.38v-10.06c0-.16.07-.3.18-.4.66-.56,2.21-1.37,3.3-1.37,3.85,0,4.13,2.22,4.13,5.87v7.26c0,.96-.21,1.09-2.11,1.09-.68,0-.76.49-.76.98,0,.86.58.9.69.9.08,0,.19,0,.34-.01.46-.02,1.41-.07,3.92-.07,1.21,0,3.57.08,4.1.08.65,0,.98-.32.98-.94,0-.26,0-.94-.82-.94-2.22,0-2.22-.56-2.22-1.05v-9.73c0-4.19-2.05-6.5-5.77-6.5-1.87,0-3.64.96-5.12,1.89-.17.1-.48.2-.66.1s-.16-.37-.15-.58c.01-.31.02-.55.03-.76,0-.18.02-.3.02-.37,0-.21,0-.86-.53-.86-.25,0-.45.12-.74.29-.58.34-1.79,1.05-5.02,1.71-.41.08-.66.15-.66.97h-.01Z" fill="#003594"/>
    <g>
      <path d="M183.41,53.4c.18,0,.39,0,.71-.02.77-.02,2.04-.06,4.73-.06,2.07,0,2.82.05,3.15.07h.05c.07,0,.12.01.16.01.54,0,.82-.32.82-.94,0-.94-.61-.94-1.38-.94-1.34,0-1.45,0-1.45-2.38v-8.76c0-2.96.06-4.87.18-5.67.01-.08.21-1.03-.64-1.03-.25,0-.46.12-.74.29-.58.34-1.78,1.05-5.02,1.71-.41.08-.66.45-.66.97,0,.22,0,.81.74.9,1.74.17,2.02.45,2.02,1.73v5.85c0,3.47-.13,5.44-.21,5.68-.17.41-.44.72-1.34.72-1.3,0-1.87,0-1.87,1.02,0,.71.4.86.74.86h.01Z" fill="#003594"/>
      <path d="M188.13,28.86c1.51,0,2.52-1.32,2.52-2.56s-1.01-2.57-2.52-2.57-2.52,1.33-2.52,2.57,1.01,2.56,2.52,2.56Z" fill="#003594"/>
    </g>
    <path d="M193.91,36.96c.08,0,.92-.06,1.13.38s1.25,3.23,2.17,5.75c1.1,2.99,3.37,8.57,3.49,8.84.61,1.35.89,1.96,1.52,1.96.58,0,1.06-.53,2.31-3.51.24-.56,3.52-7.97,4.48-10.25,1.46-3.44,1.09-3.09,3.31-3.2h.07c.51-.06.83-.32.83-.97,0-.5-.18-1.03-.69-1.03-.58,0-1.27.02-1.85.04h-.04c-.61.02-1.2.04-1.77.04s-1.15-.02-1.73-.04h-.08c-.56-.02-1.37-.04-1.9-.04-.61,0-.72.6-.72,1.03,0,.68.3.9.69.9,2.07,0,2.4.13,2.4.64,0,.91-.53,2.34-3.55,9.08-.09.2-.26.52-.48.52s-.42-.33-.5-.53c-1.56-3.76-3.25-8.4-3.25-9.24,0-.09-.09-.41.33-.43s.97,0,1.52,0h.22c.48,0,.67-.49.67-.92,0-.66-.27-1.03-.72-1.03-.39,0-4.42.08-4.82.08-.62,0-3.86-.08-3.87-.08-.81,0-.81.8-.81,1.15,0,.81.65.87,1.63.87h.01Z" fill="#003594"/>
    <path d="M221.65,53.89c5.52,0,7.39-5.11,7.39-5.56,0-.39-.6-.9-1.06-.9-.37,0-.58.32-.79.64-.05.07-.09.14-.15.22-1.09,1.56-2.45,2.26-4.41,2.26-4.07,0-6.24-3.65-6.24-6.28,0-.52.02-.98.06-1.42.02-.28.12-.48.4-.48h10.85c.25,0,.9,0,.9-.86,0-.76-.22-7.43-7.68-7.43-4.19,0-8.52,3.8-8.52,10.15s3.37,9.66,9.26,9.66h-.01ZM217,39.67c.62-2.47,1.93-3.71,3.91-3.71.95,0,3.16.34,3.16,3.44,0,.79-.3.93-.97.93h-5.59c-.17,0-.39-.02-.49-.15-.1-.13-.06-.34-.02-.5h0Z" fill="#003594"/>
    <path d="M230.5,53.4c.25,0,.58,0,.9-.02h.07c.67-.03,1.69-.06,3.84-.06,1.01,0,1.85.02,2.59.04.71.02,1.51.04,2.19.04.49,0,.87-.08.87-.98,0-.98-.44-.9-2.08-.9s-1.61-.46-1.61-1.98v-9.21c0-.36.03-.8.18-1.03.46-.72,1.65-1.48,2.49-1.48.4,0,.66.24,1.02.57.47.43,1.05.97,2.11.97,1.5,0,2.4-1.24,2.4-2.44,0-1.61-1.21-2.68-3.01-2.68-1.31,0-2.75.67-4.3,2-.17.15-.52.31-.71.21-.2-.1-.18-.44-.16-.66.02-.21.04-.39.05-.55v-.06c.04-.32.06-.52.06-.69,0-.32-.16-.82-.57-.82-.25,0-.46.12-.74.29-.58.34-1.78,1.05-5.02,1.71-.61.12-.66.45-.66.97,0,.22,0,.81.74.9,1.74.17,2.02.74,2.02,2.02v10.3c0,1.52-.14,1.66-1.66,1.66-1,0-1.67,0-1.67.94,0,.69.3.94.68.94h-.02,0Z" fill="#003594"/>
    <path d="M247.25,52.76c.06.31.13.73.55.85.37.1.67.02,1.59.02.76,0,2.77.26,3.52.26,6.1,0,6.69-4.54,6.69-5.93,0-3.87-2.04-4.67-4.87-5.79h0c-.76-.3-1.62-.64-2.54-1.07-.63-.31-1.68-1.04-1.68-2.35,0-1.65,1.06-2.63,2.83-2.63s2.96,1.05,3.81,3.13l.07.17c.29.77.72.71,1.14.71.72,0,.86-.3.86-.74,0-.25-.06-.55-.14-.96-.11-.56-.26-1.33-.31-2.29,0-.88-.1-1.39-.92-1.54-.23-.04-2.6-.38-4.48-.38-3.81,0-6.58,2.49-6.58,5.93s2.95,4.54,5.32,5.47c2.02.8,3.77,1.48,3.77,3.17,0,.53-.16,3.2-3.28,3.2-2.35,0-3.31-1.61-3.95-2.8-.38-.71-.59-1.3-1.16-1.3-.76,0-1.18.11-1.18.55,0,.23.18,1.02.59,2.8.17.74.28,1.19.34,1.5v.02h.01Z" fill="#003594"/>
    <g>
      <path d="M261.91,53.4c.18,0,.39,0,.71-.02.77-.02,2.06-.06,4.76-.06,2.07,0,2.82.05,3.15.07h.05c.07,0,.12.01.16.01.54,0,.82-.32.82-.94,0-.94-.61-.94-1.38-.94-1.34,0-1.45,0-1.45-2.38v-8.76c0-2.96.06-4.87.18-5.67.01-.08.02-.13.02-.17,0-.59-.33-.86-.66-.86-.25,0-.46.12-.74.29-.58.34-1.78,1.05-5.02,1.71-.41.08-.66.45-.66.97,0,.22,0,.81.74.9,1.74.17,2.02.45,2.02,1.73v5.85c0,3.47-.13,5.44-.21,5.68-.17.41-.38.72-1.28.72-1.3,0-1.96,0-1.96,1.02,0,.71.4.86.74.86h.01Z" fill="#003594"/>
      <path d="M266.66,28.86c1.51,0,2.52-1.32,2.52-2.56s-1.01-2.57-2.52-2.57-2.52,1.33-2.52,2.57,1.01,2.56,2.52,2.56Z" fill="#003594"/>
    </g>
    <path d="M271.83,37.42c.14.09.28.08.4.09h2.01v10.93c0,3.51,1.8,5.44,5.08,5.44,3.75,0,5.81-1.93,5.81-2.56,0-.4-.4-1.06-.86-1.06-.15,0-.26.06-.51.2-.46.26-1.32.73-2.24.73-2.65,0-3.16-.86-3.16-5.43v-7.85c0-.14-.01-.32.09-.43.1-.1.3-.11.44-.11h0c1.95.01,2.45.07,2.84.09.15,0,.25.02.32.02.88,0,1.51.03,1.51-1.15,0-1.26-.46-1.39-.77-1.39-.81,0-1.52.02-2,.05h-.06c-.51.03-.7.06-1.79.07h0c-.15,0-.36,0-.46-.1s-.08-.31-.07-.45c.05-1.44.08-2.32.08-2.67,0-.62-.45-.94-.9-.94-.54,0-.92.44-1.6,1.25-.76.9-1.91,2.25-4.01,3.83-.25.21-.39.38-.39.89,0,.25.09.44.25.54h0Z" fill="#003594"/>
    <path d="M285.77,36.97c1.27,0,2.11.08,2.35.66.32.78.57,1.7.93,2.86.65,2.14,1.55,5.08,3.21,9.36l.12.31c.44,1.13,1.27,3.23,1.27,4.08,0,1.83-1.76,5.12-2.25,5.39-.1-.02-.28-.12-.43-.2-.37-.21-.87-.49-1.58-.49-1.47,0-2.76,1.22-2.76,2.6,0,1.55,1.2,2.81,2.68,2.81,1.61,0,2.99-.62,6.19-8.62.48-1.23,2.37-5.27,4.2-9.19l.07-.15c1.39-2.97,3.03-6.45,3.71-8.02.51-1.19.79-1.34,2.21-1.34.71,0,1.03-.33,1.04-1,0-.18.05-.6-.23-.89-.15-.15-.39-.23-.62-.23-.64,0-1.27.02-1.82.04-1.16.04-2.5.04-3.75,0-.62-.02-1.4-.04-2.06-.04-.44,0-.69.41-.69.94,0,1.15.64,1.16.84,1.16h.36c.75,0,1.81-.06,2.18.31.11.11.16.25.16.44,0,.52-.77,2.81-4.26,10.1-.09.2-.28.31-.5.3-.22,0-.4-.14-.48-.34-1.9-4.95-3.16-8.62-3.16-10.4,0-.27.1-.48,1.58-.48.53,0,.78-.57.78-1.1,0-.85-.63-.94-.9-.94-.58,0-1.2.02-1.89.04-.68.02-1.4.04-2.12.04-.91,0-2.11-.03-3.02-.06h-.28c-.39-.02-.86-.03-1-.03-.43,0-.69.31-.69.9s.1,1.15.64,1.15l-.03.03h0Z" fill="#003594"/>
    <path d="M334.57,37.54h1.94c.36,0,.65.09.65.61v12.37c0,.5-.25.97-1.08.97-1.31,0-1.44.01-1.63.22s-.2.53-.2.75c0,.69.25.94.78.94h.39c.48-.03,1.48-.07,3.91-.07.96,0,1.74.02,2.59.04.65.02,1.44.04,2.14.04.49,0,.91-.08.91-.98,0-.81-.46-.9-1.75-.9-2.09,0-1.94-.46-1.94-1.98v-11.44c0-.15.06-.28.16-.38.11-.1.25-.16.39-.15.66.03,1.48.07,2.15.11h.05c.67.04,1.37.12,1.48.12.95,0,1.2-.47,1.2-1.36,0-1.05-.35-1.27-.86-1.27h-4.05c-.29,0-.53-.24-.53-.53v-4.29c0-2.49.4-5.47,2.31-5.47.62,0,.83.27,1.52.84,1.15.95,2.2,1.03,2.5,1.03,1.39,0,2.32-.96,2.32-2.4s-1.49-2.16-2.97-2.16c-.77,0-1.91.17-2.58.34-4.76,1.25-6.89,4.5-7.32,11.2-.1,1.51-.23,1.38-1.78,1.77-1.06.27-1.58.33-1.58,1.09,0,.83.35.91.9.94h-.02Z" fill="#003594"/>
    <path d="M165.77,68.57c-3.2-3.93-8.46-5.93-15.62-5.93-2.57,0-6.21.14-8.19.22-.84.03-1.45.05-1.62.05-3.21,0-6.72-.15-8.6-.23h-.09c-.63-.03-1.04-.05-1.18-.05-.63,0-1.03.51-1.03,1.3,0,.59,0,1.58,1.17,1.58,4.72,0,5.74.36,5.81,4.23l.04,1.64c.06,2.29.1,4.1.1,8.09v16.92c0,2.88-.06,7.16-.21,10.69-.06,1.48-.1,2.85-5.53,2.85-2.02,0-2.34.47-2.34,1.58,0,.61.15,1.31.96,1.31,1.53,0,2.56-.14,10.91-.14,6.2,0,10.83.14,12.51.14.96,0,1.09-.83,1.09-1.44,0-1.25-.59-1.45-2.8-1.45-6.73,0-6.68-1.35-6.81-3.77v-.4c-.07-1.95-.13-3.96-.14-13.71,0-.16.07-.3.19-.41.12-.1.28-.14.43-.12,2.14.34,4.47.5,7.33.5,4.87,0,8.99-1.33,11.91-3.86,3.1-2.68,4.73-6.65,4.73-11.47,0-.74-.15-4.63-3.02-8.16v.04h0ZM160.51,77.28c0,7.22-5.02,11.89-12.79,11.89-3.53,0-3.53-1.03-3.53-2.22v-16.1c-.03-2.52.07-4.01.71-4.65.66-.67,2.09-.67,4.69-.67,6.43,0,10.92,4.83,10.92,11.75Z" fill="#003594"/>
    <g>
      <path d="M184.02,110.23c-2.56,0-2.77-.33-2.77-4.36v-14.92c0-5.05.11-8.31.32-9.71.02-.11.03-.18.03-.24,0-.81-.41-1.17-.82-1.17-.34,0-.64.18-1.11.45-1,.59-3.08,1.82-8.64,2.94-.55.11-.88.62-.88,1.37,0,.36,0,1.11.99,1.24,3.17.32,3.71,1.41,3.71,3.74v9.46c0,5-.17,9.3-.38,9.79-.39.91-.9,1.41-2.46,1.41-2.49,0-3.03.12-3.03,1.44,0,.32,0,1.17.96,1.17.3,0,.67-.01,1.18-.03,1.3-.04,3.48-.11,8.15-.11,3.5,0,4.81.08,5.37.12.17.01.28.02.37.02,1.1,0,1.1-.95,1.1-1.31,0-1.26-.6-1.31-2.07-1.31h-.02,0Z" fill="#003594"/>
      <path d="M178.01,62.92c-1.93,0-4,1.63-4,4.07s2.07,4.07,4,4.07,4-1.64,4-4.07-2.07-4.07-4-4.07Z" fill="#003594"/>
    </g>
    <path d="M207.45,108.09c-.18,0-.34.09-.74.31-.81.45-2.32,1.28-3.96,1.28-5.21,0-5.67-2.47-5.67-9.54v-13.56c0-.14.06-.28.16-.38s.25-.16.38-.16c3.85.03,5.96.22,6.86.3.35.03.53.05.65.05,1.73.03,2.27-.78,2.27-2.14,0-.46,0-1.86-1.1-1.86h-8.68c-.14,0-.28-.06-.38-.16s-.16-.24-.15-.38c.02-1.91.09-3.07.14-3.95.03-.56.06-1,.06-1.46,0-.9-.64-1.3-1.24-1.3-.79,0-1.43.76-2.5,2.02-1.3,1.53-3.27,3.85-6.87,6.56-.47.38-.57.66-.57,1.29,0,.68.41,1.03.82,1.03h3.29c.34,0,.45.09.45.4v18.26c0,7.42,4.54,8.97,8.35,8.97,6.4,0,9.59-3.29,9.59-4.07,0-.56-.58-1.51-1.16-1.51h0Z" fill="#003594"/>
    <path d="M230.76,108.09c-.18,0-.34.09-.74.31-.81.45-2.32,1.28-3.96,1.28-5.21,0-5.67-2.47-5.67-9.54v-13.56c0-.14.06-.28.16-.38s.25-.16.38-.16c3.85.03,5.96.22,6.86.3.35.03.53.05.65.05,1.73.03,2.27-.78,2.27-2.14,0-.46,0-1.86-1.1-1.86h-8.68c-.14,0-.28-.06-.38-.16s-.16-.24-.15-.38c.02-1.91.09-3.07.14-3.95.03-.56.06-1,.06-1.46,0-.9-.64-1.3-1.24-1.3-.79,0-1.43.76-2.5,2.02-1.3,1.53-3.27,3.85-6.87,6.56-.47.38-.57.66-.57,1.29,0,.68.41,1.03.82,1.03h3.29c.34,0,.45.09.45.4v18.26c0,7.42,4.54,8.97,8.35,8.97,6.4,0,9.59-3.29,9.59-4.07,0-.56-.58-1.51-1.16-1.51h0Z" fill="#003594"/>
    <path d="M247.56,94.29s-2.79-1.1-4.35-1.84c-1.13-.56-3.02-1.86-3.02-4.26,0-2.94,1.96-4.77,5.12-4.77,2.99,0,5.27,1.86,6.77,5.52l.04.09c.44,1.14,1.08,1.23,1.76,1.23s1.17-.39,1.17-.96c0-.39-.1-.91-.23-1.57-.19-.97-.45-2.29-.53-3.96,0-.75-.28-2.09-1.34-2.33-.33-.09-4.39-.64-7.56-.64-6.32,0-10.9,4.12-10.9,9.8s4.71,7.4,8.87,9.04c3.39,1.34,6.6,2.6,6.6,5.67,0,4.53-3.69,5.74-5.88,5.74-4.18,0-5.77-2.98-6.82-4.95-.63-1.17-1.08-2.02-1.88-2.02-.41,0-1.65,0-1.65.82,0,.41,1.51,7.05,1.59,7.46s.39.75.75.75c2.84,0,5.62.55,7.94.55,10.83,0,11.67-7.5,11.67-9.8,0-6.39-3.4-7.73-8.11-9.58h-.01Z" fill="#003594"/>
    <path d="M285.67,84.15c-2.65-2.42-6.23-3.75-10.1-3.75-2.92,0-5.04.63-7.1,2.11-.17.12-.38.14-.57.04-.18-.09-.29-.27-.29-.47v-11.22c0-6.27.14-7.25.31-8.83,0-.06.03-.3.03-.4,0-.86-.44-1-.82-1-.3,0-.75.19-1.58.53-1.61.67-4.3,1.82-8.1,2.44-.76.13-.88.62-.88,1.37,0,.68.35,1.13.99,1.24h.15c2.33.22,3.49,2.18,3.49,5.89v36.05c0,.91-.14,3.06-.14,3.52,0,.32,0,1.31.96,1.31s1.09-.53,1.38-.98c.33-.53.65-1.04,1.46-1.04.72,0,1.51.4,2.7.88,2,.81,4.49,1.83,7.8,1.83,3.66,0,7.32-1.41,10.04-3.86,3.36-3.03,5.14-7.5,5.14-12.92s-1.69-9.83-4.88-12.75h.01ZM283.18,97.86c0,8.88-2.74,13.2-8.37,13.2-4.84,0-7.19-2.87-7.19-8.78v-12.57c0-4.03,2.53-6.43,6.77-6.43,7.26,0,8.78,7.93,8.78,14.58h.01Z" fill="#003594"/>
    <path d="M326.09,108.64c-.22,0-2.23.28-2.75.28-1.23,0-1.32-.85-1.32-2.15v-12.99c0-3.97.41-8.19.56-9.78.05-.5.06-.65.06-.71,0-.88-.5-1.38-1.37-1.38s-1.77.05-2.65.11c-.86.05-1.75.1-2.6.1-2.81,0-4.77-.21-5.85-.21-.89,0-1.05.6-1.05,1.79,0,1.1,1.27,1.1,2.62,1.1,3.39,0,3.88.23,3.88,3.73v17.89c0,1.76-3.95,3.25-6.43,3.25-4.52,0-6.36-2.24-6.36-7.74v-18.65c0-.95-.14-1.38-.96-1.38-.38,0-.98.03-1.74.07h-.04c-1.15.06-2.72.14-4.23.14s-2.42-.08-3.15-.15c-.37-.03-.67-.06-.92-.06-1.34,0-1.17,1.25-1.17,1.79,0,.99,1.35,1.1,1.93,1.1,3.21,0,3.87,0,3.87,6.08v10.77c0,8.42,2.74,12.01,9.18,12.01,2.44,0,6.34-1.04,9.79-3.36-.06.57-.12,1.23-.12,1.77,0,.67.5,1.38,1.24,1.38,1,0,3.83-1.12,8-1.8,1.99-.31,2.62-.45,2.62-1.3,0-1.07-.15-1.72-1.04-1.72v.02h0Z" fill="#003594"/>
    <path d="M350.41,80.81c-2.49,0-5.29,1.48-8.31,4.41-.16.16-.44.26-.65.17s-.26-.35-.25-.57c.06-1.18.14-2.06.21-2.72.05-.46.09-.85.09-1.15,0-.36.12-1.1-.69-1.1-.35,0-.65.18-1.11.45-1,.59-3.08,1.82-8.64,2.94-.55.11-.88.62-.88,1.37,0,.36,0,1.11.99,1.24,3.17.32,3.71,1.41,3.71,3.74v17.54c0,2.74-.38,3.11-3.11,3.11-1.73,0-2.55,0-2.55,1.3,0,1.18.72,1.31,1.03,1.31.42,0,.82-.01,1.42-.04,1.14-.04,2.87-.1,6.6-.1,1.66,0,3.03.04,4.36.07h.05c1.11.03,2.26.07,3.46.07,1.05,0,1.44-.1,1.44-1.38,0-1.37-.58-1.24-3.24-1.24-3.05,0-3.05-1.07-3.05-3.67v-15.68c0-.67.06-1.46.38-1.94,1.22-1.86,3.53-2.62,4.46-2.62.79,0,1.29.46,1.93,1.05.76.7,1.7,1.57,3.38,1.57,2.37,0,3.79-1.96,3.79-3.86,0-2.6-1.9-4.28-4.83-4.28h0Z" fill="#003594"/>
    <path d="M382.85,86.07c.67,1.01,1.5,2.26,3.01,2.26,1.64,0,3.03-1.29,3.03-2.83,0-1.29-.54-4.28-5.58-4.28-1.24,0-2.95.2-5.16,1.76-.18.13-.42.13-.6.01-2.24-1.49-5.25-2.39-8.05-2.39-3.15,0-6.32,1.21-8.71,3.33-2.53,2.24-3.92,5.22-3.92,8.4,0,4.35,1.43,7.44,4.36,9.43.15.1.31.24.31.42,0,.17-.14.35-.28.45-2.67,1.97-4.32,3.93-4.32,7.58,0,1.74,1.18,3.29,2.93,4.07.17.07.38.2.4.38.02.16-.11.36-.23.49-2.58,2.59-4.97,5.12-4.97,8.91,0,4.64,3.05,6.9,9.32,6.9,2.93,0,8.56-.37,13.33-2.87,4.67-2.45,7.04-6.1,7.04-11.01,0-.84-.14-3.09-1.24-4.63-1.61-2.25-4.4-3.48-8.56-3.48h-10.22c-2.04,0-2.84-.52-2.84-1.87,0-2,1.28-3.18,2.12-3.74.27-.18.6-.17.76-.11,1.53.51,3.73.6,4.52.6,7.95,0,12.7-4.59,12.7-12.29,0-1.63-1.11-4.93-2.42-6.6.27-.39.66-.71,1.49-.71.95,0,1.27,1.01,1.8,1.8l-.02.02h0ZM359.81,121.03c0-3.42,3.56-6.11,3.56-6.11h10.2c4.89,0,6.9,1.03,6.9,4.66,0,4.44-3.43,7.4-11.13,7.4-8.85,0-9.54-4.55-9.54-5.95h0ZM369.49,101.25c-5.05,0-5.81-4.89-5.81-7.81,0-6.79,2.05-10.23,6.08-10.23,4.87,0,5.39,5.56,5.39,7.95,0,3.77-.74,10.09-5.67,10.09h0Z" fill="#003594"/>
    <path d="M423.49,110.23c-4.08,0-4.08-1.15-4.08-2.08v-16.58c0-6.94-3.38-10.77-9.53-10.77-3.96,0-6.97,1.57-9.62,3.26-.17.11-.37.11-.54.02s-.28-.27-.28-.47v-12.76c0-5.04.28-8.25.34-9.21s-.22-1.24-.82-1.24c-.3,0-.76.19-1.58.53-1.61.67-4.29,1.86-8.1,2.44-.88.14-.88.62-.88,1.37,0,.68.35,1.13.99,1.24,3.57.33,3.64.33,3.64,6.11v24.17c0,4.32-.18,11.98-.38,12.55-.29.68-.72,1.41-2.11,1.41-2.49,0-3.03.12-3.03,1.44,0,.32,0,1.17.96,1.17.17,0,.42,0,.79-.02,1.08-.04,3.32-.12,8.19-.12,3.79,0,5.15.08,5.73.12.17.01.27.02.35.02,1.1,0,1.1-.95,1.1-1.31,0-1.31-.49-1.31-2.41-1.31-2.56,0-2.77-.33-2.77-4.36v-18.35c.5-.85,3.36-2.11,6.22-2.11,6.83,0,7.33,3.89,7.33,10.3v12.36c0,1.88-.23,2.15-3.75,2.15-1.01,0-1.15.74-1.15,1.38,0,1.15.68,1.24.89,1.24.14,0,.31,0,.59-.02.8-.04,2.46-.12,6.66-.12,2.09,0,3.37.04,4.49.08h.1c.82.03,1.65.05,2.51.05,1.24,0,1.24-.81,1.24-1.23,0-.67-.08-1.38-1.1-1.38v.03h.01Z" fill="#003594"/>
    <path d="M323.79,34.22c-5.61,0-9.84,4.23-9.84,9.84s4.14,9.84,9.84,9.84,9.88-3.95,9.88-9.84-4.16-9.84-9.88-9.84h0ZM328.97,44.07c0,6.56-2.81,7.93-5.17,7.93-4.24,0-5.13-4.31-5.13-7.93,0-7.36,3.93-7.93,5.13-7.93,4.8,0,5.17,6.07,5.17,7.93Z" fill="#003594"/>
    <path d="M433.61,102.45c3,0,5.47,2.47,5.47,5.47s-2.47,5.47-5.47,5.47-5.47-2.47-5.47-5.47,2.47-5.47,5.47-5.47ZM433.61,112.49c2.51,0,4.57-2.06,4.57-4.57s-2.06-4.57-4.57-4.57-4.57,2.06-4.57,4.57,2.06,4.57,4.57,4.57ZM434.89,108.63l1.12,2.51h-1.35l-1.01-2.36h-1.12v2.36h-1.31v-6.44h2.7c1.2,0,2.1.64,2.1,1.91v.26c0,.94-.45,1.5-1.12,1.76h-.01ZM433.65,105.82h-1.12v1.87h1.12c.68,0,1.05-.26,1.05-.9v-.11c0-.6-.37-.86-1.05-.86h0Z" fill="#003594"/>
  </g>
  <g>
    <rect x="46.17" y="8.64" width="11.79" height="2.83" fill="#003594"/>
    <path d="M57.96,6.81c0-1.5,2.21-2.13,2.21-4.78V.08h-3.43v1.95h-2.96V.08h-3.43v1.95h-2.96V.08h-3.43v1.95c0,2.55,2.21,3.28,2.21,4.78h11.79,0Z" fill="#003594"/>
    <rect x="25.03" y="13.26" width="11.76" height="2.83" fill="#003594"/>
    <path d="M36.79,11.47c0-1.5,2.23-2.13,2.23-4.78v-1.95h-3.43v1.95h-2.96v-1.95h-3.43v1.95h-2.96v-1.95h-3.43v1.95c0,2.55,2.21,3.28,2.21,4.78h11.77,0Z" fill="#003594"/>
    <rect x="67.1" y="13.26" width="11.76" height="2.83" fill="#003594"/>
    <path d="M78.86,11.47c0-1.5,2.23-2.13,2.23-4.78v-1.95h-3.43v1.95h-2.96v-1.95h-3.43v1.95h-2.96v-1.95h-3.43v1.95c0,2.55,2.21,3.28,2.21,4.78h11.77,0Z" fill="#003594"/>
    <path d="M52.03,98.2c-4.23,0-7.67,3.44-7.67,7.67s3.44,7.66,7.67,7.66,7.66-3.43,7.66-7.66-3.44-7.67-7.66-7.67Z" fill="#003594"/>
    <path d="M25.97,33.69c-4.23,0-7.67,3.44-7.67,7.66s3.44,7.67,7.67,7.67,7.67-3.44,7.67-7.67-3.44-7.66-7.67-7.66Z" fill="#003594"/>
    <path d="M78,33.69c-4.23,0-7.67,3.44-7.67,7.66s3.44,7.67,7.67,7.67,7.66-3.44,7.66-7.67-3.44-7.66-7.66-7.66Z" fill="#003594"/>
    <g>
      <path d="M81.09,23.59v-.64c0-2.65-2.01-3.76-2.23-4.98h-11.76c-.2,1.26-2.21,2.43-2.21,4.98v.64h-2.48v-.65c0-4.03,2.46-4.58,2.46-7.13v-2.54h-3.43v1.98h-2.2v-1.98h-3.44v1.98h-2.14v-1.98h-3.43v1.98h-2.14v-1.98h-3.44v1.98h-2.2v-1.98h-3.43v2.54c0,2.55,2.46,3.11,2.46,7.13v.65h-2.45v-.64c0-2.65-2.01-3.76-2.23-4.98h-11.76c-.2,1.26-2.21,2.43-2.21,4.98v.64H.01v33.87c0,13.39,2.69,25.57,7.99,36.22,4.25,8.54,10.18,16.1,17.61,22.48,12.64,10.83,25.15,14.43,25.68,14.58l.67.19.67-.19c.53-.15,13.04-3.74,25.68-14.57,7.43-6.37,13.36-13.93,17.61-22.47,5.3-10.65,7.99-22.84,7.99-36.24V23.59h-22.82ZM75.22,112.24c-10.2,8.79-20.56,12.58-23.26,13.47-2.7-.89-13.06-4.69-23.26-13.49-6.38-5.5-11.55-11.94-15.4-19.16h77.33c-3.85,7.23-9.02,13.67-15.41,19.17h0ZM16.19,68.49v-10.22h10.22v10.22h10.22v10.22h10.22v10.22h-10.22v-10.22h-10.22v10.22h-10.22v-10.22h10.22v-10.22h-10.22ZM57.11,68.49v-10.22h10.22v10.22h10.23v-10.22h10.22v10.22h-10.22v10.22h10.22v10.22h-10.22v-10.22h-10.23v10.22h-10.22v-10.22h-10.23v-10.22h-10.22v-10.22h10.22v10.22h10.23,0ZM98.92,54.15H5v-25.66h42.93v-5.95c0-2.22,1.8-4.02,4.02-4.02s4.02,1.8,4.02,4.02v5.95h42.95v25.66h0Z" fill="#003594"/>
      <rect x="57.11" y="68.49" width="10.22" height="10.22" fill="#003594"/>
    </g>
  </g>
</svg>