<?xml version="1.0" encoding="UTF-8"?>
<svg version="1.1" xmlns="http://www.w3.org/2000/svg" width="512" height="512" viewBox="0 0 512 512">
  <path
    d="M0 0 C1.55094612 -0.0076664 1.55094612 -0.0076664 3.13322449 -0.01548767 C6.5227145 -0.02929178 9.91199904 -0.02843368 13.30151367 -0.02612305 C15.67746556 -0.03001526 18.05341675 -0.03435101 20.42936707 -0.03910828 C25.39954894 -0.04655097 30.36965976 -0.04629354 35.33984375 -0.04101562 C41.68102344 -0.03522645 48.02191052 -0.05214851 54.36304188 -0.0753603 C59.26781388 -0.09015647 64.17251638 -0.09096129 69.07730675 -0.08785057 C71.41387193 -0.08836092 73.7504413 -0.09354426 76.08698463 -0.10366249 C95.05671967 -0.17573073 112.54652935 0.30794476 127.22338867 14.09887695 C136.70646377 24.76973116 143.15049771 38.78089002 150.19059753 51.09196472 C153.66238128 57.16269993 157.15939018 63.2187694 160.65698242 69.2746582 C161.90709524 71.44125978 163.15709505 73.60792656 164.40698242 75.7746582 C165.02573242 76.8471582 165.64448242 77.9196582 166.28198242 79.0246582 C231.90698242 192.7746582 231.90698242 192.7746582 233.78222656 196.02514648 C235.0313376 198.19022891 236.28052371 200.35526803 237.52978516 202.52026367 C240.66900552 207.96081526 243.80688805 213.40213036 246.94213867 218.8449707 C247.56693115 219.92883057 248.19172363 221.01269043 248.83544922 222.12939453 C250.08457531 224.29760031 251.33215197 226.46669952 252.578125 228.63671875 C255.69279064 234.05115465 258.84414871 239.43796129 262.07104492 244.78637695 C262.70453857 245.84518066 263.33803223 246.90398437 263.99072266 247.99487305 C265.17921831 249.97742091 266.37834004 251.95365995 267.59082031 253.92163086 C273.10568221 263.15875777 276.96619723 273.07263396 276.59448242 283.9621582 C276.57764404 284.68854492 276.56080566 285.41493164 276.54345703 286.16333008 C275.85034771 304.68486635 263.01670329 321.38668845 253.89526367 336.90356445 C250.13576588 343.29933747 246.42358731 349.72169051 242.71948242 356.1496582 C241.79280762 357.75151978 241.79280762 357.75151978 240.84741211 359.38574219 C237.93172946 364.43069024 235.03145861 369.48269736 232.1870575 374.56814575 C231.19786849 376.33473783 230.20349177 378.09830861 229.20751953 379.86108398 C227.96750337 382.05937307 226.73706187 384.2631047 225.51855469 386.47338867 C217.77875273 400.13417738 207.07938297 411.64113231 191.75436687 416.31165504 C186.30860778 417.64170793 180.92767586 417.55795884 175.34883118 417.54208374 C174.17510505 417.54661485 173.00137893 417.55114597 171.79208535 417.55581439 C168.55156192 417.56624988 165.31117882 417.56779018 162.07064402 417.56542563 C158.5687831 417.56501612 155.06695481 417.57606945 151.56510925 417.58554077 C144.71043398 417.60212331 137.85579311 417.60764909 131.00109944 417.60876553 C125.4259771 417.6097174 119.85086606 417.61383462 114.2757473 417.62016678 C98.45165218 417.63777243 82.62758415 417.64700682 66.80347917 417.64550583 C65.52500503 417.64538596 65.52500503 417.64538596 64.22070312 417.64526367 C63.36734012 417.64518191 62.51397711 417.64510015 61.63475462 417.64501591 C47.81209861 417.64420341 33.98955167 417.66333367 20.1669272 417.69154041 C5.95669746 417.72030806 -8.25347916 417.73407854 -22.46373874 417.73235285 C-30.43474709 417.73169025 -38.40564112 417.73712558 -46.37662315 417.75870895 C-53.16463452 417.77697203 -59.95247975 417.7812263 -66.74050512 417.76769011 C-70.19941768 417.76118588 -73.65801201 417.76094996 -77.11689377 417.77839661 C-80.87819287 417.7938988 -84.638666 417.78450667 -88.39994812 417.76913452 C-89.47721733 417.77942165 -90.55448655 417.78970877 -91.66440028 417.80030763 C-105.57043415 417.6754238 -116.2157688 413.01501759 -126.53051758 403.8996582 C-132.88745639 396.68367361 -137.82772452 389.16004369 -142.40551758 380.7121582 C-143.63546581 378.4793824 -144.86728495 376.24763633 -146.10083008 374.0168457 C-147.03330566 372.32833496 -147.03330566 372.32833496 -147.98461914 370.60571289 C-150.84694239 365.47519024 -153.80705705 360.4038506 -156.78051758 355.3371582 C-162.43064482 345.69931733 -168.03245735 336.03502729 -173.60644531 326.35302734 C-174.1885376 325.34232178 -174.77062988 324.33161621 -175.37036133 323.2902832 C-175.93924072 322.30068604 -176.50812012 321.31108887 -177.09423828 320.29150391 C-178.30223132 318.20757678 -179.52295893 316.13099807 -180.75390625 314.06054688 C-181.68360229 312.49397339 -181.68360229 312.49397339 -182.63208008 310.89575195 C-183.18976074 309.96432373 -183.74744141 309.03289551 -184.32202148 308.07324219 C-190.89828623 295.97312617 -191.94139501 282.22817584 -188.26879883 269.06762695 C-185.91810049 261.85291156 -182.40458786 255.58221016 -178.53051758 249.0871582 C-177.81639021 247.86738859 -177.10360853 246.64683026 -176.39208984 245.42553711 C-174.93220906 242.92337462 -173.46568059 240.42531038 -171.9934082 237.93041992 C-169.33738886 233.42425855 -166.73047659 228.89015766 -164.12353516 224.35546875 C-162.27262029 221.13592137 -160.41610618 217.91966723 -158.55786133 214.7043457 C-155.44296907 209.31372184 -152.33080091 203.92153336 -149.2199707 198.52856445 C-147.34592195 195.27969325 -145.4714233 192.03108188 -143.59692383 188.7824707 C-141.08232322 184.42400432 -138.56947097 180.06453629 -136.05786133 175.7043457 C-130.03554429 165.25259621 -123.99632421 154.81166272 -117.90551758 144.3996582 C-112.48343059 135.1290189 -107.13977746 125.81529122 -101.82278442 116.48419189 C-96.64922971 107.40687185 -91.41159604 98.36894288 -86.13208008 89.3527832 C-81.65135025 81.68891047 -77.23856755 73.98752482 -72.84301758 66.2746582 C-67.68853898 57.23460819 -62.51235913 48.20775142 -57.28051758 39.2121582 C-56.73331055 38.26791992 -56.18610352 37.32368164 -55.62231445 36.35083008 C-46.53383326 20.76580908 -38.71455224 8.41296684 -20.84301758 2.2746582 C-13.86054602 0.50322364 -7.18206021 -0.01866061 0 0 Z M42.15698242 136.2746582 C41.74561035 136.99717773 41.33423828 137.71969727 40.91040039 138.46411133 C33.71288384 151.09917503 26.50524751 163.72644383 19.15698242 176.2746582 C14.10064435 184.90961701 9.1109111 193.58072158 4.15698242 202.2746582 C-1.37864903 211.98848425 -6.96870972 221.66853283 -12.61328125 231.31958008 C-21.25888543 246.10613684 -29.85154617 260.92582027 -38.28051758 275.8371582 C-38.65217041 276.49200195 -39.02382324 277.1468457 -39.40673828 277.8215332 C-41.1115459 280.39678859 -41.1115459 280.39678859 -41.84301758 283.2746582 C14.25698242 283.2746582 70.35698242 283.2746582 128.15698242 283.2746582 C124.20253676 275.36576687 120.21303601 267.72884996 115.71948242 260.1496582 C114.47930006 258.04063534 113.23973805 255.93124759 112.00073242 253.8215332 C111.36651367 252.74323242 110.73229492 251.66493164 110.07885742 250.55395508 C106.93214134 245.18471088 103.82539623 239.79257629 100.71948242 234.3996582 C99.78664429 232.78099854 99.78664429 232.78099854 98.83496094 231.12963867 C97.57248511 228.93882869 96.31019687 226.74791061 95.0480957 224.55688477 C91.92018094 219.12805878 88.78839794 213.70146539 85.65698242 208.2746582 C84.40696363 206.10800238 83.15696364 203.94133571 81.90698242 201.7746582 C81.28823242 200.7021582 80.66948242 199.6296582 80.03198242 198.5246582 C78.15698242 195.2746582 76.28198242 192.0246582 74.40698242 188.7746582 C73.78734619 187.70062744 73.16770996 186.62659668 72.52929688 185.52001953 C71.28822988 183.36882596 70.04718149 181.21762166 68.80615234 179.06640625 C65.89199898 174.01502821 62.97766424 168.9637551 60.06265259 163.91287231 C59.03024764 162.12398902 57.99790286 160.33507103 56.96557617 158.54614258 C55.67012294 156.30128184 54.37455672 154.0564863 53.07885742 151.81176758 C50.09390328 146.63894046 47.11452926 141.46320811 44.15698242 136.2746582 C43.49698242 136.2746582 42.83698242 136.2746582 42.15698242 136.2746582 Z "
    fill="#34A753" transform="translate(212.843017578125,41.725341796875)" />
  <path
    d="M0 0 C17.21020733 6.67363395 25.43846837 28.78690976 34.03361511 43.81730652 C37.50539886 49.88804173 41.00240776 55.9441112 44.5 62 C45.75011282 64.16660158 47.00011263 66.33326836 48.25 68.5 C48.86875 69.5725 49.4875 70.645 50.125 71.75 C115.75 185.5 115.75 185.5 117.62524414 188.75048828 C118.87435518 190.91557071 120.12354129 193.08060982 121.37280273 195.24560547 C124.51202309 200.68615706 127.64990563 206.12747216 130.78515625 211.5703125 C131.40994873 212.65417236 132.03474121 213.73803223 132.6784668 214.85473633 C133.92759289 217.0229421 135.17516955 219.19204131 136.42114258 221.36206055 C139.53580822 226.77649644 142.68716629 232.16330309 145.9140625 237.51171875 C146.54755615 238.57052246 147.1810498 239.62932617 147.83374023 240.72021484 C149.02223588 242.7027627 150.22135762 244.67900174 151.43383789 246.64697266 C156.94869978 255.88409957 160.80921481 265.79797575 160.4375 276.6875 C160.42066162 277.41388672 160.40382324 278.14027344 160.38647461 278.88867188 C159.69336529 297.41020814 146.85972087 314.11203024 137.73828125 329.62890625 C133.97878346 336.02467926 130.26660489 342.4470323 126.5625 348.875 C125.6358252 350.47686157 125.6358252 350.47686157 124.69042969 352.11108398 C121.77474703 357.15603203 118.87447619 362.20803916 116.03007507 367.29348755 C115.04088607 369.06007962 114.04650935 370.82365041 113.05053711 372.58642578 C111.81052094 374.78471487 110.58007945 376.9884465 109.36157227 379.19873047 C104.2004807 388.3080826 97.67292719 396.94912057 89 403 C87.68 403 86.36 403 85 403 C85 401.68 85 400.36 85 399 C83.68 398.67 82.36 398.34 81 398 C80.79375 397.030625 80.5875 396.06125 80.375 395.0625 C79.19763665 390.80321494 76.85319904 387.63002646 74.2421875 384.11328125 C73 382 73 382 73 378 C72.34 378 71.68 378 71 378 C69 375 69 375 69 371 C68.34 371 67.68 371 67 371 C66.73445312 370.44570313 66.46890625 369.89140625 66.1953125 369.3203125 C65.84210938 368.59585937 65.48890625 367.87140625 65.125 367.125 C64.60292969 366.04605469 64.60292969 366.04605469 64.0703125 364.9453125 C63.03442457 362.84864981 63.03442457 362.84864981 61 361 C61 359.68 61 358.36 61 357 C60.34 357 59.68 357 59 357 C57.9935725 355.33720673 56.99414593 353.67016516 56 352 C55.01 351.34 54.02 350.68 53 350 C52.32741333 347.66836622 51.66152556 345.3347961 51 343 C49.7260411 340.96166576 48.38938077 338.96147874 47 337 C44.77688458 333.36217477 42.94586557 330.02574925 41.5625 326 C40.30504342 322.44751338 38.58132797 319.70921529 36.28125 316.73828125 C33.57810281 313.07090168 31.49282543 309.07802654 29.40039062 305.04052734 C24.73074029 296.05405522 19.43683465 287.53676426 14 279 C6.64140833 267.36032291 -0.1563611 255.39931319 -7.01220703 243.45947266 C-10.1672263 237.96860763 -13.33397963 232.48452655 -16.5 227 C-17.75006112 224.83336859 -19.000061 222.66670186 -20.25 220.5 C-20.86875 219.4275 -21.4875 218.355 -22.125 217.25 C-29 205.33333333 -35.875 193.41666667 -42.75 181.5 C-43.36963623 180.42596924 -43.98927246 179.35193848 -44.62768555 178.24536133 C-45.86875254 176.09416776 -47.10980093 173.94296345 -48.35083008 171.79174805 C-51.26498344 166.74037001 -54.17931818 161.6890969 -57.09432983 156.63821411 C-58.12673478 154.84933082 -59.15907956 153.06041283 -60.19140625 151.27148438 C-61.48685948 149.02662364 -62.7824257 146.7818281 -64.078125 144.53710938 C-65.22326863 142.55261321 -66.36467699 140.56595459 -67.50146484 138.57666016 C-68.42047402 136.99646745 -69.36358369 135.42963386 -70.34619141 133.88818359 C-73.0584901 129.58027866 -73.0584901 129.58027866 -72.7590332 126.609375 C-71.94559855 123.8129808 -70.85902861 121.67480066 -69.3671875 119.17578125 C-68.81619385 118.24330566 -68.2652002 117.31083008 -67.69750977 116.35009766 C-66.79536743 114.84648682 -66.79536743 114.84648682 -65.875 113.3125 C-64.58913841 111.13974019 -63.30400648 108.96654843 -62.01953125 106.79296875 C-61.3538916 105.67067871 -60.68825195 104.54838867 -60.00244141 103.39208984 C-56.81524836 97.99305788 -53.68880011 92.55944522 -50.5625 87.125 C-49.3047514 84.94267151 -48.04693852 82.76038005 -46.7890625 80.578125 C-45.52596731 78.3854595 -44.26294656 76.19275111 -43 74 C-33.97571055 58.33186221 -24.91851811 42.68406582 -15.79541016 27.07324219 C-12.56900744 21.55053925 -9.34734302 16.02507228 -6.125 10.5 C-4.94012351 8.46873872 -3.75522956 6.43748762 -2.5703125 4.40625 C-2.07289551 3.55353516 -1.57547852 2.70082031 -1.06298828 1.82226562 C-0.53680908 0.92024414 -0.53680908 0.92024414 0 0 Z "
    fill="#FBBB05" transform="translate(329,49)" />
  <path
    d="M0 0 C0.69828647 -0.0045321 1.39657294 -0.00906419 2.11601961 -0.01373363 C4.47353902 -0.02750908 6.8310173 -0.03382193 9.18856812 -0.03997803 C10.87191908 -0.04783562 12.55526871 -0.05598553 14.23861694 -0.06440735 C29.62373749 -0.13356364 45.0093282 -0.12782789 60.39455605 -0.10460281 C71.77120024 -0.08840649 83.14661931 -0.1077795 94.52309096 -0.17353463 C102.51740254 -0.21662573 110.51107726 -0.21781084 118.50544679 -0.1883657 C123.28220273 -0.17199791 128.05724129 -0.1744733 132.83382034 -0.22248077 C137.33109463 -0.2669104 141.82533505 -0.25946957 146.32255554 -0.21256828 C147.97089169 -0.20439182 149.61944564 -0.21492885 151.26751328 -0.24578285 C163.70848154 -0.46295075 163.70848154 -0.46295075 167.84583664 3.50455475 C169.65827655 6.32102419 171.02767247 9.10472377 172.39706421 12.15631104 C173.55579157 13.987339 174.74007721 15.80267621 175.95956421 17.59381104 C178.99165556 22.33822183 181.46918355 27.23980637 183.92440796 32.30084229 C185.71361759 35.77010553 187.80400503 38.92828141 190.01815796 42.13677979 C192.71280805 46.0833353 194.95830501 50.12618073 196.83456421 54.53131104 C200.22646134 62.41723428 200.22646134 62.41723428 205.39706421 69.15631104 C205.50018921 70.08443604 205.60331421 71.01256104 205.70956421 71.96881104 C206.57846457 75.99734906 208.4234099 77.41139937 211.39706421 80.15631104 C211.39706421 80.81631104 211.39706421 81.47631104 211.39706421 82.15631104 C212.05706421 82.15631104 212.71706421 82.15631104 213.39706421 82.15631104 C213.79925171 83.23912354 213.79925171 83.23912354 214.20956421 84.34381104 C215.32673927 87.18270731 215.32673927 87.18270731 216.95956421 89.71881104 C218.26818446 91.93777581 218.93238857 93.6470626 219.39706421 96.15631104 C220.05706421 96.15631104 220.71706421 96.15631104 221.39706421 96.15631104 C222.05706421 98.46631104 222.71706421 100.77631104 223.39706421 103.15631104 C224.05706421 103.15631104 224.71706421 103.15631104 225.39706421 103.15631104 C225.80956421 104.18756104 226.22206421 105.21881104 226.64706421 106.28131104 C227.74287523 108.86763279 228.8415144 110.80278404 230.45956421 113.15631104 C232.39706421 116.15631104 232.39706421 116.15631104 233.45956421 119.96881104 C233.92362671 121.54662354 233.92362671 121.54662354 234.39706421 123.15631104 C235.38706421 123.48631104 236.37706421 123.81631104 237.39706421 124.15631104 C237.39706421 125.47631104 237.39706421 126.79631104 237.39706421 128.15631104 C238.05706421 128.48631104 238.71706421 128.81631104 239.39706421 129.15631104 C238.24206421 129.77506104 237.08706421 130.39381104 235.89706421 131.03131104 C235.24737671 131.37935791 234.59768921 131.72740479 233.92831421 132.08599854 C226.51126197 135.22222124 219.5314782 135.44633785 211.58891296 135.42373657 C210.41518684 135.42826769 209.24146072 135.4327988 208.03216714 135.43746722 C204.79164371 135.44790271 201.55126061 135.44944301 198.31072581 135.44707847 C194.80886489 135.44666896 191.3070366 135.45772228 187.80519104 135.4671936 C180.95051576 135.48377614 174.09587489 135.48930192 167.24118123 135.49041836 C161.66605889 135.49137023 156.09094785 135.49548745 150.51582909 135.50181961 C134.69173397 135.51942526 118.86766594 135.52865965 103.04356096 135.52715866 C101.76508682 135.52703879 101.76508682 135.52703879 100.46078491 135.5269165 C99.60742191 135.52683474 98.7540589 135.52675298 97.87483641 135.52666874 C84.0521804 135.52585625 70.22963346 135.5449865 56.40700898 135.57319324 C42.19677924 135.6019609 27.98660263 135.61573137 13.77634305 135.61400568 C5.8053347 135.61334308 -2.16555933 135.61877841 -10.13654137 135.64036179 C-16.92455273 135.65862486 -23.71239796 135.66287913 -30.50042333 135.64934294 C-33.9593359 135.64283871 -37.41793022 135.6426028 -40.87681198 135.66004944 C-44.63811108 135.67555163 -48.39858422 135.6661595 -52.15986633 135.65078735 C-53.23713555 135.66107448 -54.31440476 135.67136161 -55.42431849 135.68196046 C-69.33035236 135.55707663 -79.97568701 130.89667042 -90.29043579 121.78131104 C-96.6473746 114.56532644 -101.58764274 107.04169652 -106.16543579 98.59381104 C-107.39538402 96.36103523 -108.62720316 94.12928917 -109.86074829 91.89849854 C-110.79322388 90.20998779 -110.79322388 90.20998779 -111.74453735 88.48736572 C-114.60686061 83.35684307 -117.56697526 78.28550343 -120.54043579 73.21881104 C-126.19056303 63.58097016 -131.79237556 53.91668013 -137.36636353 44.23468018 C-138.23950195 42.71862183 -138.23950195 42.71862183 -139.13027954 41.17193604 C-139.69915894 40.18161377 -140.26803833 39.1912915 -140.85415649 38.17095947 C-142.05964084 36.09287478 -143.28050111 34.02365936 -144.51382446 31.9619751 C-147.55388272 26.86425619 -150.37628529 22.11619631 -152.04043579 16.40631104 C-152.34852173 15.40084229 -152.65660767 14.39537354 -152.97402954 13.35943604 C-153.72740456 9.5223707 -153.64337118 6.06523253 -153.60293579 2.15631104 C-152.85141267 2.1520791 -152.09988955 2.14784716 -151.32559299 2.14348698 C-133.06590551 2.04032369 -114.80625798 1.93170774 -96.54663944 1.81697178 C-87.7165416 1.7616195 -78.88643972 1.70813427 -70.05630493 1.65899658 C-62.36278977 1.61617924 -54.66930461 1.56990754 -46.97583574 1.51943249 C-42.89965688 1.49281173 -38.82348405 1.46795825 -34.74727058 1.44723701 C-30.91502909 1.42770153 -27.08284479 1.40356722 -23.25065422 1.37582016 C-21.84009715 1.3664333 -20.4295275 1.35876394 -19.01895142 1.35289192 C-17.10124762 1.34465851 -15.18357564 1.32979288 -13.26591492 1.31452942 C-12.1901825 1.30807687 -11.11445009 1.30162432 -10.00611973 1.29497623 C-6.51181764 1.09335284 -3.9394956 0.01875516 0 0 Z "
    fill="#4384F4" transform="translate(176.60293579101563,323.84368896484375)" />
  <path
    d="M0 0 C1.03396408 -0.00511093 2.06792816 -0.01022186 3.13322449 -0.01548767 C6.5227145 -0.02929178 9.91199904 -0.02843368 13.30151367 -0.02612305 C15.67746556 -0.03001526 18.05341675 -0.03435101 20.42936707 -0.03910828 C25.39954894 -0.04655097 30.36965976 -0.04629354 35.33984375 -0.04101562 C41.68102344 -0.03522645 48.02191052 -0.05214851 54.36304188 -0.0753603 C59.26781388 -0.09015647 64.17251638 -0.09096129 69.07730675 -0.08785057 C71.41387193 -0.08836092 73.7504413 -0.09354426 76.08698463 -0.10366249 C105.3412142 -0.21480273 105.3412142 -0.21480273 116.15698242 6.2746582 C114.89937172 10.38363108 113.3772205 13.92872807 111.20776367 17.6340332 C110.61479492 18.65368164 110.02182617 19.67333008 109.41088867 20.72387695 C108.77022461 21.81313477 108.12956055 22.90239258 107.46948242 24.0246582 C106.79441603 25.18186792 106.1199478 26.33942677 105.44604492 27.49731445 C104.04682437 29.90036403 102.64505307 32.3018974 101.24145508 34.70239258 C98.02248858 40.21252665 94.84183213 45.74476179 91.65698242 51.2746582 C90.40844421 53.43881285 89.15974574 55.60287505 87.91088867 57.7668457 C85.39628807 62.12531208 82.88343581 66.48478011 80.37182617 70.8449707 C73.67144015 82.47378985 66.94574342 94.08707274 60.17578125 105.67553711 C54.81057983 114.8604658 49.47885006 124.0645689 44.15698242 133.2746582 C40.2862963 131.9844295 39.99798334 130.6995209 38.08276367 127.1652832 C37.50139648 126.10647949 36.9200293 125.04767578 36.32104492 123.95678711 C35.7100293 122.82418457 35.09901367 121.69158203 34.46948242 120.5246582 C33.20723574 118.22403868 31.94293155 115.92454675 30.67651367 113.6262207 C30.06888184 112.52181641 29.46125 111.41741211 28.83520508 110.27954102 C26.30222489 105.74420203 23.57229268 101.35680117 20.80932617 96.95825195 C18.65765328 93.46369101 16.71104504 89.87771015 14.77026367 86.26293945 C9.77724057 77.01436155 4.5536866 67.89256005 -0.78051758 58.8371582 C-1.3937085 57.79543457 -1.3937085 57.79543457 -2.01928711 56.73266602 C-4.22857583 52.98749428 -6.45529201 49.25352972 -8.69848633 45.52856445 C-9.16198486 44.75375732 -9.6254834 43.9789502 -10.10302734 43.18066406 C-10.99513512 41.68988191 -11.89254629 40.20225721 -12.79589844 38.71826172 C-15.84301758 33.61229489 -15.84301758 33.61229489 -15.84301758 30.2746582 C-16.50301758 30.2746582 -17.16301758 30.2746582 -17.84301758 30.2746582 C-18.2065332 29.59661133 -18.57004883 28.91856445 -18.94458008 28.2199707 C-22.04243257 22.48497198 -25.25428517 16.87634836 -28.74145508 11.3684082 C-29.84301758 9.2746582 -29.84301758 9.2746582 -29.84301758 6.2746582 C-28.55833719 5.6354211 -27.2646365 5.01431839 -25.96801758 4.3996582 C-25.2487207 4.05161133 -24.52942383 3.70356445 -23.78833008 3.3449707 C-16.00954999 0.51819916 -8.21058565 -0.02133295 0 0 Z "
    fill="#197F37" transform="translate(212.843017578125,41.725341796875)" />
  <path
    d="M0 0 C48.18 0 96.36 0 146 0 C146 19.63660241 133.40396925 36.18618574 123.73828125 52.62890625 C119.97878346 59.02467926 116.26660489 65.4470323 112.5625 71.875 C111.9447168 72.94290771 111.32693359 74.01081543 110.69042969 75.11108398 C107.77474703 80.15603203 104.87447619 85.20803916 102.03007507 90.29348755 C101.04088607 92.06007962 100.04650935 93.82365041 99.05053711 95.58642578 C97.81052094 97.78471487 96.58007945 99.9884465 95.36157227 102.19873047 C90.2004807 111.3080826 83.67292719 119.94912057 75 126 C73.68 126 72.36 126 71 126 C71 124.68 71 123.36 71 122 C69.02 121.505 69.02 121.505 67 121 C66.690625 119.5459375 66.690625 119.5459375 66.375 118.0625 C65.19763665 113.80321494 62.85319904 110.63002646 60.2421875 107.11328125 C59 105 59 105 59 101 C58.34 101 57.68 101 57 101 C55 98 55 98 55 94 C54.34 94 53.68 94 53 94 C52.73445313 93.44570313 52.46890625 92.89140625 52.1953125 92.3203125 C51.84210938 91.59585938 51.48890625 90.87140625 51.125 90.125 C50.77695312 89.40570313 50.42890625 88.68640625 50.0703125 87.9453125 C49.03442457 85.84864981 49.03442457 85.84864981 47 84 C47 82.68 47 81.36 47 80 C46.34 80 45.68 80 45 80 C43.9935725 78.33720673 42.99414593 76.67016516 42 75 C41.01 74.34 40.02 73.68 39 73 C38.32741333 70.66836622 37.66152556 68.3347961 37 66 C35.7260411 63.96166576 34.38938077 61.96147874 33 60 C30.77688458 56.36217477 28.94586557 53.02574925 27.5625 49 C26.30504342 45.44751338 24.58132797 42.70921529 22.28125 39.73828125 C19.57740937 36.06996089 17.49240796 32.0758122 15.3984375 28.0378418 C11.65465364 20.82896531 7.56748958 13.92160899 3.15014648 7.10424805 C0 2.20065398 0 2.20065398 0 0 Z "
    fill="#E74335" transform="translate(343,326)" />
  <path
    d="M0 0 C0 0.99 0 1.98 0 3 C-0.66 3 -1.32 3 -2 3 C-2.2686084 3.87906006 -2.5372168 4.75812012 -2.81396484 5.66381836 C-3.94390953 8.84222391 -5.26809392 11.47912289 -6.9765625 14.37890625 C-7.56115234 15.37639893 -8.14574219 16.3738916 -8.74804688 17.40161133 C-9.36744141 18.44470459 -9.98683594 19.48779785 -10.625 20.5625 C-11.25728516 21.63717529 -11.88957031 22.71185059 -12.54101562 23.8190918 C-16.3943886 30.35055898 -20.32833503 36.82397436 -24.3359375 43.26171875 C-27.06274759 47.74879357 -29.53185339 52.36716742 -32 57 C-32.99704534 58.85575716 -33.99706119 60.70992132 -35 62.5625 C-35.433125 63.36816406 -35.86625 64.17382812 -36.3125 65.00390625 C-37.74273919 67.54324296 -39.2177113 70.03991073 -40.72265625 72.53515625 C-44.37815275 78.60039303 -47.90828712 84.7356775 -51.4375 90.875 C-56.26530438 99.26559553 -61.11454402 107.64283089 -66 116 C-66.73844878 117.26552726 -67.47676208 118.5311336 -68.21484375 119.796875 C-69.80989583 122.53125 -71.40494792 125.265625 -73 128 C-81.78243615 126.11396707 -86.85648027 119.31632367 -91.62792969 112.17578125 C-95.8305642 105.51139001 -99.53339805 98.53773979 -103.328125 91.63671875 C-106.76745108 85.38678995 -110.32613736 79.21428357 -113.9375 73.0625 C-119.58777043 63.42474387 -125.18944045 53.76036791 -130.76342773 44.07836914 C-131.63656616 42.56231079 -131.63656616 42.56231079 -132.52734375 41.015625 C-133.09622314 40.02530273 -133.66510254 39.03498047 -134.2512207 38.01464844 C-135.45670505 35.93656374 -136.67756532 33.86734833 -137.91088867 31.80566406 C-140.95094693 26.70794515 -143.7733495 21.95988528 -145.4375 16.25 C-145.74558594 15.24453125 -146.05367187 14.2390625 -146.37109375 13.203125 C-147.12446877 9.36605966 -147.04043539 5.9089215 -147 2 C-146.24847688 1.99576806 -145.49695375 1.99153612 -144.7226572 1.98717594 C-126.46296972 1.88401266 -108.20332219 1.7753967 -89.94370365 1.66066074 C-81.11360581 1.60530846 -72.28350393 1.55182323 -63.45336914 1.50268555 C-55.75985398 1.4598682 -48.06636882 1.41359651 -40.37289995 1.36312145 C-36.29672109 1.3365007 -32.22054826 1.31164722 -28.14433479 1.29092598 C-24.3120933 1.27139049 -20.479909 1.24725619 -16.64771843 1.21950912 C-15.23716136 1.21012226 -13.82659171 1.20245291 -12.41601562 1.19658089 C-10.49831183 1.18834748 -8.58063985 1.17348184 -6.66297913 1.15821838 C-5.58724671 1.15176583 -4.5115143 1.14531328 -3.40318394 1.1386652 C-1.04837815 1.27011144 -1.04837815 1.27011144 0 0 Z "
    fill="#1967D2" transform="translate(170,324)" />
  <path
    d="M0 0 C3.82669043 3.42388092 5.72278474 6.00724943 7 11 C7.66 11 8.32 11 9 11 C9.67305018 12.60149886 10.33822227 14.20631029 11 15.8125 C11.37125 16.70582031 11.7425 17.59914063 12.125 18.51953125 C13 21 13 21 13 24 C9.08001686 21.38667791 9.2610864 19.45089318 8 15 C6.7260411 12.96166576 5.38938077 10.96147874 4 9 C0 2.52380952 0 2.52380952 0 0 Z "
    fill="#A15E81" transform="translate(372,377)" />
  <path
    d="M0 0 C0.66 0 1.32 0 2 0 C0.66511872 3.59391114 -0.96022723 6.75490696 -3 10 C-3.33 8.68 -3.66 7.36 -4 6 C-3.34 6 -2.68 6 -2 6 C-2.33 4.68 -2.66 3.36 -3 2 C-2.01 2 -1.02 2 0 2 C0 1.34 0 0.68 0 0 Z "
    fill="#387E1B" transform="translate(287,118)" />
  <path
    d="M0 0 C0.625 1.8125 0.625 1.8125 1 4 C0.01 5.485 0.01 5.485 -1 7 C-1.66 7 -2.32 7 -3 7 C-3 7.99 -3 8.98 -3 10 C-3.66 10 -4.32 10 -5 10 C-3.66511872 6.40608886 -2.03977277 3.24509304 0 0 Z "
    fill="#D2BE1E" transform="translate(302,96)" />
  <path
    d="M0 0 C0.99 0.33 1.98 0.66 3 1 C1.35 3.64 -0.3 6.28 -2 9 C-3 6 -3 6 -1.5625 2.8125 C-1.046875 1.884375 -0.53125 0.95625 0 0 Z "
    fill="#3F811B" transform="translate(316,67)" />
  <path
    d="M0 0 C3.53586014 3.17320782 5.58578031 5.16743695 6 10 C4 9 4 9 3 6 C2.01 5.34 1.02 4.68 0 4 C0 2.68 0 1.36 0 0 Z "
    fill="#906698" transform="translate(366,367)" />
  <path d="M0 0 C3.2542015 2.83430453 4.5206753 4.68607774 5 9 C2.5 6.75 2.5 6.75 0 4 C0 2.68 0 1.36 0 0 Z "
    fill="#7970B3" transform="translate(352,343)" />
  <path
    d="M0 0 C4.8 3.32307692 4.8 3.32307692 5.8125 6.75 C5.874375 7.4925 5.93625 8.235 6 9 C5.34 9 4.68 9 4 9 C4 7.68 4 6.36 4 5 C2.68 4.67 1.36 4.34 0 4 C0 2.68 0 1.36 0 0 Z "
    fill="#99638C" transform="translate(410,443)" />
  <path
    d="M0 0 C0.33 0.66 0.66 1.32 1 2 C0.06421005 4.35981813 -0.93347808 6.69631264 -2 9 C-2.66 9 -3.32 9 -4 9 C-2.94124926 5.59687262 -1.99097846 2.98646769 0 0 Z "
    fill="#D3BE20" transform="translate(281,132)" />
</svg>