<svg
  xmlns="http://www.w3.org/2000/svg"
  xmlns:xlink="http://www.w3.org/1999/xlink"
  version="1.1"
  width="512"
  height="512"
  viewBox="-256 -256 512 512"
  preserveAspectRatio="xMidYMid meet"
  >
  <style>
    #top-half {
      fill: url(#grad-top);
      stroke: #524343;
      stroke-width: 1;
      filter: url(#shadow);
    }
    #bottom-half {
      fill: url(#grad-bottom);
      stroke: #524343;
      stroke-width: 1;
      filter: url(#shadow);
    }
    #text {
      fill: #FFEDEC;
      stroke: #524343;
      stroke-width: 0.5;
      filter: url(#shadow);
    }
  </style>
  <defs>
    <linearGradient id="grad-top" x1="0%" y1="100%" x2="100%" y2="0%">
      <stop offset="0%" style="stop-color:#E12F45;stop-opacity:1" />
      <stop offset="100%" style="stop-color:#920021;stop-opacity:1" />
    </linearGradient>
    <linearGradient id="grad-bottom" x1="0%" y1="100%" x2="100%" y2="0%">
      <stop offset="0%" style="stop-color:#FF888B;stop-opacity:1" />
      <stop offset="100%" style="stop-color:#BD0B30;stop-opacity:1" />
    </linearGradient>
    <filter id="shadow" x="-20%" y="-20%" width="140%" height="140%">
      <feDropShadow dx="4" dy="-4" stdDeviation="4" flood-color="#000000" flood-opacity="0.4" />
    </filter>
    <path
      id="text-curve"
      d="
        M -199.19,0
        C -99.6,-51.74 -99.6,-51.74 0,0
        C 99.6,51.74 99.6,51.74 199.19,0
        "
      />
  </defs>
  <path
    class="icon-fill icon-stroke"
    id="top-half"
    d="
      M 199.19,-38.33
      L 199.19,-115
      L 0,-230
      L -199.19,-115
      L -199.19,-38.33
      C -99.6,-90.69 -99.6,-90.69 0,-38.33
      C 99.6,12.78 99.6,12.78 199.19,-38.33
      Z
      "
    />
  <text
    id="text"
    class="icon-fill icon-stroke"
    fill-rule="evenodd"
    font-family="Roboto, sans-serif"
    font-size="64"
    dominant-baseline="middle"
    dy="8"
    >
    <textPath
      xlink:href="#text-curve"
      startOffset="50%"
      text-anchor="middle"
      textLength="398"
      lengthAdjust="spacing"
      >
      FNC314
    </textPath>
  </text>
  <path
    id="bottom-half"
    class="icon-fill icon-stroke"
    d="
      M -199.19,38.33
      L -199.19,115
      L 0,230
      L 199.19,115
      L 199.19,38.33
      C 99.6,90.69 99.6,90.69 0,38.33
      C -99.6,-12.78 -99.6,-12.78 -199.19,38.33
      Z
      "
    />
</svg>