<svg
  xmlns="http://www.w3.org/2000/svg"
  xmlns:xlink="http://www.w3.org/1999/xlink"
  version="1.1"
  width="512"
  height="512"
  viewBox="-256 -256 512 512"
  preserveAspectRatio="xMidYMid meet"
  >
  <defs>
    <path
      id="text-curve"
      d="
        M -199.19,0
        C -99.6,-51.74 -99.6,-51.74 0,0
        C 99.6,51.74 99.6,51.74 199.19,0
        "
      />
  </defs>
  <path
    id="top-half"
    d="
      M 199.19,-38.33
      L 199.19,-115
      L 0,-230
      L -199.19,-115
      L -199.19,-38.33
      C -99.6,-90.69 -99.6,-90.69 0,-38.33
      C 99.6,12.78 99.6,12.78 199.19,-38.33
      Z
      "
    stroke="#FFDAD6"
    stroke-width="2"
    fill="#93000A"
    />
  <text
    id="text"
    fill="#93000A"
    stroke="#FFDAD6"
    stroke-width="2"
    font-family="Roboto, sans-serif"
    font-size="64"
    dominant-baseline="middle"
    dy="8"
    >
    <textPath
      xlink:href="#text-curve"
      startOffset="50%"
      text-anchor="middle"
      textLength="398"
      lengthAdjust="spacing"
      >
      FNC314
    </textPath>
  </text>
  <path
    id="bottom-half"
    d="
      M -199.19,38.33
      L -199.19,115
      L 0,230
      L 199.19,115
      L 199.19,38.33
      C 99.6,90.69 99.6,90.69 0,38.33
      C -99.6,-12.78 -99.6,-12.78 -199.19,38.33
      Z
      "
    stroke="#FFDAD6"
    stroke-width="2"
    fill="#93000A"
    />
</svg>